<svg id="graphic" xmlns="http://www.w3.org/2000/svg" xmlns:xlink="http://www.w3.org/1999/xlink" width="455.483" height="214.026" viewBox="0 0 455.483 214.026">
  <defs>
    <style>
      .cls-1 {
        fill: #d2e4ff;
        opacity: 0.6;
      }

      .cls-2 {
        fill: none;
      }

      .cls-3 {
        fill: #a8c7f3;
      }

      .cls-4 {
        clipPath: url(#clipPath);
      }

      .cls-5 {
        clipPath: url(#clipPath-2);
      }

      .cls-6 {
        fill: #8cb3eb;
      }

      .cls-7 {
        fill: #b9d4f8;
      }

      .cls-8 {
        fill: #c6ddfd;
      }

      .cls-9 {
        fill: #a0c3f6;
      }

      .cls-10 {
        opacity: 0.4;
      }

      .cls-11 {
        clipPath: url(#clipPath-3);
      }

      .cls-12 {
        clipPath: url(#clipPath-4);
      }

      .cls-13 {
        fill: #e9f3fe;
      }

      .cls-14 {
        fill: #fff;
      }

      .cls-15 {
        fill: #233862;
      }

      .cls-16 {
        fill: #28458a;
      }

      .cls-17 {
        fill: #213861;
      }

      .cls-18 {
        fill: #ffb27d;
      }

      .cls-19 {
        fill: #163560;
      }

      .cls-20 {
        fill: #e9923c;
      }

      .cls-21 {
        fill: #f3a24e;
      }

      .cls-22 {
        fill: #f1a054;
      }

      .cls-23 {
        fill: #afcdfb;
      }

      .cls-24 {
        fill: #e49963;
      }

      .cls-25 {
        fill: #d68d5d;
      }

      .cls-26 {
        fill: #2b478b;
      }

      .cls-27 {
        fill: #ee9849;
      }

      .cls-28 {
        fill: #d86713;
      }

      .cls-29 {
        fill: #ba550f;
      }

      .cls-30 {
        fill: #1e356d;
      }

      .cls-31 {
        fill: #5a78c1;
      }

      .cls-32 {
        clipPath: url(#clipPath-5);
      }

      .cls-33 {
        clipPath: url(#clipPath-6);
      }

      .cls-34 {
        clipPath: url(#clipPath-7);
      }

      .cls-35 {
        fill: #283250;
      }
    </style>
    <clipPath id="clipPath">
      <rect id="Rectangle_35870" data-name="Rectangle 35870" class="cls-1" width="455.483" height="214.026"/>
    </clipPath>
    <clipPath id="clipPath-2">
      <rect id="Rectangle_35869" data-name="Rectangle 35869" class="cls-2" width="455.483" height="214.025"/>
    </clipPath>
    <clipPath id="clipPath-3">
      <rect id="Rectangle_35863" data-name="Rectangle 35863" class="cls-3" width="49.718" height="13.901"/>
    </clipPath>
    <clipPath id="clipPath-4">
      <rect id="Rectangle_35864" data-name="Rectangle 35864" class="cls-3" width="100.522" height="31.773"/>
    </clipPath>
    <clipPath id="clipPath-5">
      <rect id="Rectangle_35866" data-name="Rectangle 35866" class="cls-2" width="63.513" height="63.514"/>
    </clipPath>
    <clipPath id="clipPath-6">
      <rect id="Rectangle_35867" data-name="Rectangle 35867" class="cls-2" width="58.496" height="58.497"/>
    </clipPath>
    <clipPath id="clipPath-7">
      <rect id="Rectangle_35868" data-name="Rectangle 35868" class="cls-2" width="62.51" height="62.51"/>
    </clipPath>
  </defs>
  <g id="Group_49562" data-name="Group 49562" class="cls-4">
    <g id="Group_49561" data-name="Group 49561" transform="translate(0 0.001)">
      <g id="Group_49560" data-name="Group 49560" class="cls-5">
        <path id="Path_69852" data-name="Path 69852" class="cls-1" d="M70.848,212.939s-49.639,9.116-65.44-25.372c-20.5-44.743,21.617-78.668,53.919-72.348,70.387,13.773,53.438-138.172,166.4-107.162,31.764,8.72,117.584-43.079,141.519,39.976,5.692,19.75,25.857,21.925,55.131,34.457,57.291,24.526,31.1,130.862-9.841,131.279s-341.689-.831-341.689-.831" transform="translate(0 -0.004)"/>
        <path id="Path_69853" data-name="Path 69853" class="cls-6" d="M1229.787,483.719l10.308,122.559s1.08,7.429-4.446,7.442c-9.086.022-45.224,0-45.224,0s6.838-1.547,6.756-5.026c-.1-4.1-12.047-126.135-12.047-126.135Z" transform="translate(-982.957 -400.239)"/>
        <path id="Path_69854" data-name="Path 69854" class="cls-7" d="M1172.889,600.685c1.787.005,36.3.113,45.152,0,3.856-.048,4.532-3.429,4.564-5.617a10.964,10.964,0,0,0-.117-1.824l-.268-3.185-.683-8.119-.6-7.173-.776-9.217-.653-7.78-7.324-87.087-44.655-1.159s5.033,51.071,8.593,88.246c.4,4.142.775,8.114,1.125,11.821q.171,1.775.328,3.468c.33,3.517.632,6.747.894,9.6.139,1.5.266,2.9.382,4.18.454,5.013.72,8.215.724,8.823a5.146,5.146,0,0,1-.087.992c-.733,3.906-5.926,4.034-6.6,4.034" transform="translate(-968.354 -389.426)"/>
        <path id="Path_69855" data-name="Path 69855" class="cls-8" d="M616.316,98.414H830.705L805.6,199.265l-3.438,13.812-11.694,46.974H573.215Z" transform="translate(-475.428 -81.626)"/>
        <path id="Path_69856" data-name="Path 69856" class="cls-6" d="M1886.963,98.413l3.479,1.16L1851.35,263.558l-4.627-3.508Z" transform="translate(-1531.685 -81.625)"/>
        <path id="Path_69857" data-name="Path 69857" class="cls-9" d="M795.1,1049.424H579.181l-5.962-3.508H790.47Z" transform="translate(-475.432 -867.491)"/>
        <rect id="Rectangle_35862" data-name="Rectangle 35862" class="cls-9" width="46.749" height="2.222" transform="translate(197.093 211.307)"/>
        <path id="Path_69858" data-name="Path 69858" class="cls-6" d="M1225,1066.475l.241,1.7,43.965,8.882-.6-7.173-.287-3.407Z" transform="translate(-1016.025 -884.543)"/>
        <g id="Group_49547" data-name="Group 49547" class="cls-10" transform="translate(204.534 197.409)">
          <g id="Group_49546" data-name="Group 49546">
            <g id="Group_49545" data-name="Group 49545" class="cls-11">
              <path id="Path_69859" data-name="Path 69859" class="cls-3" d="M1198.963,1171.047c1.787.005,36.3.114,45.152,0,3.856-.048,4.532-3.429,4.564-5.617l-43.757-8.232c.454,5.013.72,8.215.724,8.823a5.173,5.173,0,0,1-.087.992c-.733,3.906-5.925,4.034-6.6,4.034" transform="translate(-1198.963 -1157.198)"/>
            </g>
          </g>
        </g>
        <g id="Group_49550" data-name="Group 49550" class="cls-10" transform="translate(222.426 146.652)">
          <g id="Group_49549" data-name="Group 49549">
            <g id="Group_49548" data-name="Group 49548" class="cls-12">
              <path id="Path_69860" data-name="Path 69860" class="cls-3" d="M1303.844,859.682l92.612,31.754,7.909-31.773Z" transform="translate(-1303.843 -859.663)"/>
            </g>
          </g>
        </g>
        <path id="Path_69861" data-name="Path 69861" class="cls-3" d="M656.751,98.413h214.39L838.829,228.277l-216.863.041Z" transform="translate(-515.863 -81.625)"/>
        <path id="Path_69862" data-name="Path 69862" class="cls-3" d="M1175.679,928.122a7.347,7.347,0,0,1,6.89-5.768,4.616,4.616,0,0,1,4.647,5.768,7.347,7.347,0,0,1-6.89,5.769,4.616,4.616,0,0,1-4.647-5.769" transform="translate(-975.026 -765.007)"/>
        <path id="Path_69863" data-name="Path 69863" class="cls-13" d="M681.237,256.521H881.971L904.7,165.961l1.743-6.945,1.487-5.924,3.486-13.889H713.579l-3.829,13.889-1.633,5.924-1.914,6.945Z" transform="translate(-565.023 -115.457)"/>
        <path id="Path_69864" data-name="Path 69864" class="cls-14" d="M852.209,139.2h197.841l-3.486,13.89H848.38Z" transform="translate(-703.653 -115.456)"/>
        <path id="Path_69865" data-name="Path 69865" class="cls-13" d="M1964.122,165.821a1.312,1.312,0,0,1,1.3,1.736,2.371,2.371,0,0,1-2.169,1.736,1.312,1.312,0,0,1-1.3-1.736,2.371,2.371,0,0,1,2.169-1.736" transform="translate(-1627.213 -137.534)"/>
        <path id="Path_69866" data-name="Path 69866" class="cls-13" d="M1930.3,165.821a1.312,1.312,0,0,1,1.3,1.736,2.372,2.372,0,0,1-2.169,1.736,1.312,1.312,0,0,1-1.3-1.736,2.371,2.371,0,0,1,2.169-1.736" transform="translate(-1599.163 -137.534)"/>
        <path id="Path_69867" data-name="Path 69867" class="cls-13" d="M1891.719,167.557a2.372,2.372,0,0,1,2.169-1.736,1.312,1.312,0,0,1,1.3,1.736,2.372,2.372,0,0,1-2.169,1.736,1.312,1.312,0,0,1-1.3-1.736" transform="translate(-1568.96 -137.534)"/>
        <g id="Group_49598" data-name="Group 49598" transform="translate(30)">
          <path id="Path_69868" data-name="Path 69868" class="cls-15" d="M246.139,1173.044s-2.555,2.368-2.057,4.051,2.8,2.8,3.116,4.861,1.558,3.178,2.68,3.178h5.348s.826-1.447-1.169-1.883-2.746-2.853-2.622-5.1a40.177,40.177,0,0,0-.187-5.235l-4.238-1Z" transform="translate(-202.39 -972.001)"/>
          <path id="Path_69869" data-name="Path 69869" class="cls-15" d="M454.349,1211.838h-14.2a1.255,1.255,0,0,1-.277-.083c-.946-.473-.652-4.095-.537-5.217.022-.208.038-.33.038-.33s4.987-3.988,5.672-.934c.021.095.047.189.074.281.862,2.857,4.733,4.156,6.968,4.517a2.435,2.435,0,0,1,2.264,1.766" transform="translate(-364.274 -998.708)"/>
          <path id="Path_69870" data-name="Path 69870" class="cls-16" d="M408.4,763.7s-.757,9.447-1.647,20.8c-1.21,15.427-2.664,34.376-2.808,37.965-.249,6.233-1.247,16.2-1.247,16.2s-2.367,2.369-7.1,1.37a163.127,163.127,0,0,1-5.428-29.294c-.019-.247-.037-.5-.056-.744-1.122-15.332-2.866-47.615-2.866-47.615Z" transform="translate(-321.181 -632.33)"/>
          <path id="Path_69871" data-name="Path 69871" class="cls-17" d="M408.4,763.7s-.757,9.447-1.647,20.8l-16.588,26.246c-.019-.247-.037-.5-.056-.744-1.122-15.332-2.866-47.615-2.866-47.615Z" transform="translate(-321.181 -632.33)"/>
          <path id="Path_69872" data-name="Path 69872" class="cls-16" d="M296.463,746.639s-13.649,34.215-22.623,50.294S262.061,817.5,262.061,817.5s-5.142-2.056-5.609-3.459c0,0,3.432-31.042,9.442-38.609,3.4-4.276,7.385-17.107,7.572-21.595s1.215-13.368,1.215-13.368Z" transform="translate(-212.703 -614.15)"/>
          <path id="Path_69873" data-name="Path 69873" class="cls-18" d="M559.623,721.266l.78,1.555a3.493,3.493,0,0,1,2.875,4.69s-.588,1.7-1.682,1.163-.555-.493-2.123-1.217-2.475-2.117-2.125-3.394l-.251-1.354Z" transform="translate(-462.06 -598.224)"/>
          <path id="Path_69874" data-name="Path 69874" class="cls-18" d="M396.675,412.165a40.079,40.079,0,0,0,.625-5.707l-6.925-5.581c.257,7.674-4.66,11.364-4.66,11.364s9.228,4.542,14.562,2.86a12.779,12.779,0,0,0-3.6-2.937" transform="translate(-319.915 -332.491)"/>
          <path id="Path_69875" data-name="Path 69875" class="cls-18" d="M411.954,361.988s-8.81,1.464-9.637-4.037-2.521-9.016,3.069-10.183,7,.767,7.723,2.536,1.115,11.161-1.155,11.684" transform="translate(-332.938 -288.148)"/>
          <path id="Path_69876" data-name="Path 69876" class="cls-19" d="M390.629,340.029a9.118,9.118,0,0,1,8.2-8.55c5.5-.81,2.168-5.4,1.54-6.132,0,0-4.2.8-8.5,1.746-9.029,1.982-2.194,11.841-1.24,12.936" transform="translate(-321.191 -269.846)"/>
          <path id="Path_69877" data-name="Path 69877" class="cls-20" d="M415.587,531.7a15.076,15.076,0,0,0,2.052-2.782s-10.009-12.436-10.823-13.726-6.893-21.975-6.893-21.975L384.551,490.1s12.832,26.473,14.957,29.7c3.513,5.333,14.022,13.27,14.022,13.27a6.328,6.328,0,0,0,2.057-1.374" transform="translate(-318.949 -406.494)"/>
          <path id="Path_69878" data-name="Path 69878" class="cls-21" d="M384.079,509.32a.862.862,0,0,1-.561.214c-2-.027-7.843,1.085-12.785.578A36.812,36.812,0,0,1,358.92,506.7c-.526-.236-1.736-.882-1.709-1.469.018-.644.082-1.577.162-2.753a147.21,147.21,0,0,0,.293-19.228c-.086-1.51-.131-3.008-.136-4.483-.041-10.992,2.1-20.715,6.481-23.988.374-.268,2.708.909,4.819,1.95a7.058,7.058,0,0,0,5.156.567l2.428,1.757a18.409,18.409,0,0,1,5.769,9.214c.909,3.659,1.442,10.256,1.736,17.094.133,3.1.241,6.223.268,9.188v.106c.026.294.026.615.026.909.107,7.611,0,13.647-.133,13.755" transform="translate(-296.273 -377.167)"/>
          <path id="Path_69879" data-name="Path 69879" class="cls-20" d="M358.162,582.169a147.224,147.224,0,0,0,.293-19.228c-.086-1.51-.131-3.008-.136-4.483,1.824-4.426,3.316-7.636,3.316-7.636h4.6s3.372,23.03-8.071,31.347" transform="translate(-297.062 -456.856)"/>
          <path id="Path_69880" data-name="Path 69880" class="cls-18" d="M279.881,736.546l-.873,1.5a3.493,3.493,0,0,1-2.347,4.975s-1.746.44-1.895-.77.108-.734-.145-2.443.414-3.23,1.674-3.637l.995-.952Z" transform="translate(-227.728 -609.801)"/>
          <path id="Path_69881" data-name="Path 69881" class="cls-22" d="M281.078,508.329a15.073,15.073,0,0,0,3.451.192s4.917-15.188,5.549-16.575,14.6-17.809,14.6-17.809l-5.82-14.565s-15.111,25.241-16.645,28.788c-2.536,5.861-3.415,19-3.415,19a6.327,6.327,0,0,0,2.277.968" transform="translate(-231.239 -381.173)"/>
        </g>
        <line id="Line_1201" data-name="Line 1201" class="cls-23" x1="1.155" y2="4.549" transform="translate(205.47 44.066)"/>
        <line id="Line_1202" data-name="Line 1202" class="cls-23" x1="1.155" y2="4.549" transform="translate(202.582 53.52)"/>
        <path id="Path_69882" data-name="Path 69882" class="cls-24" d="M1973.09,1159.31l-2.09,8.8-3.13-.018-.115-8.782Z" transform="translate(-1632.071 -961.54)"/>
        <path id="Path_69883" data-name="Path 69883" class="cls-24" d="M1804.53,1155.877l-5.945,8.425-2.317-2.975,3.578-6.608Z" transform="translate(-1489.837 -957.733)"/>
        <path id="Path_69884" data-name="Path 69884" class="cls-19" d="M1918.813,476.652a6.062,6.062,0,0,1,3.281-.628,1.53,1.53,0,0,0-.691-.328,5.084,5.084,0,0,1,1.815.474c7.812-3.01,9.04,8.492,8.876,11.164s2.625,3.545,6.689,5.65c7.755,4.017,8.436,9.4,8.436,9.4-.061.036-.124.076-.191.122-.385-.652-1.177-1.876-1.845-2.061a27.565,27.565,0,0,1,1.075,2.617c-2.288,1.74-6.568,5.6-9.55,8.33a4.383,4.383,0,0,0-.2-1.694l-.369,2.219c-1.6,1.467-2.7,2.5-2.7,2.5.2-2.159-9.767-13.555-14.965-16.968a15.033,15.033,0,0,1-1.749-5.413,14.215,14.215,0,0,0,1.064,4.9c-4.4-4.051-1.839-18.652,1.024-20.279" transform="translate(-1588.664 -394.526)"/>
        <path id="Path_69885" data-name="Path 69885" class="cls-24" d="M1935.118,566.893c-.026.012,2.51,1.328,4.417.806,1.794-.489,2.967-2.816,2.942-2.821-.76-.151-.979-1.2-.964-5.682l-.343.068-5.776,1.144s.132,1.818.135,3.53c0,1.438-.083,2.8-.412,2.955" transform="translate(-1605 -463.802)"/>
        <path id="Path_69886" data-name="Path 69886" class="cls-25" d="M1936.744,560.737s.131,1.818.135,3.53c3.232-.091,4.94-3.04,5.64-4.674Z" transform="translate(-1606.349 -464.131)"/>
        <path id="Path_69887" data-name="Path 69887" class="cls-19" d="M1925.431,498.208a16.986,16.986,0,0,0,2.1-4.964c.29-1.634-.542-7.69-6.628-6.818a8.268,8.268,0,0,0-3.429,1.3c-1.321.892-3.228,2.819-1.1,8.1l.554,1.785Z" transform="translate(-1588.664 -403.375)"/>
        <path id="Path_69888" data-name="Path 69888" class="cls-26" d="M1801.8,857.83l3.062.094,3.314.1a65.421,65.421,0,0,0,11.948-22.185q.15-.477.317-.964c2.35-6.852,7.221-15.453,9.789-23.237.409-1.24.776-2.407,1.1-3.512.105-.354.208-.7.306-1.044a82.575,82.575,0,0,0,2.945-15.5l-18.538.148a345.574,345.574,0,0,1-14.248,66.1" transform="translate(-1494.423 -656.545)"/>
        <path id="Path_69889" data-name="Path 69889" class="cls-27" d="M1887.464,613.21c.047,8.821-1.294,12.606-1.294,12.606a24.911,24.911,0,0,0,17.371,1.064c.111-.035,7.095-1.436,7.095-1.436-.158-.357-2.084-6.46-2.238-6.787a26.251,26.251,0,0,1-2.5-7.666,27.976,27.976,0,0,1-.229-7.39,59.306,59.306,0,0,1,2.287-11.606,60.3,60.3,0,0,1-7.653-2.615,5.978,5.978,0,0,1-4.128,1.531c-1.879-.042-2.489-.846-2.391-1.724-2,1.114-3.6,2.167-3.6,2.167-1.7,2.956-5.154,5.827-5.4,10.362-.062,1.115,2.685,11.248,2.686,11.5" transform="translate(-1563.247 -488.676)"/>
        <path id="Path_69890" data-name="Path 69890" class="cls-28" d="M1761.071,600.1c2.721-3.179,9.772-10.073,17.048-10.919l-6.278,12.231a5.411,5.411,0,0,1-2.212,3.318,36.44,36.44,0,0,1-10.344,4.316,54.342,54.342,0,0,1-9.281-5.638c-1.682-1.233-4.639-5.935-4.639-5.935l.8-2.668s5.02,2.807,6.813,3.616c1.022.461,3.374,1.563,5.032,2.341a2.587,2.587,0,0,0,3.065-.661" transform="translate(-1447.616 -488.675)"/>
        <path id="Path_69891" data-name="Path 69891" class="cls-24" d="M1918.033,513.066s7.647.126,7.652-4.637,1-7.955-3.886-8.237-5.833,1.535-6.221,3.124.467,9.595,2.455,9.75" transform="translate(-1588.718 -414.839)"/>
        <path id="Path_69892" data-name="Path 69892" class="cls-19" d="M1932.076,494.942s2.094,5.588,5.307,6.415,4.607-.035,4.607-.035a9.1,9.1,0,0,1-2.976-5.376s-5.359-3.664-6.938-1" transform="translate(-1602.477 -409.706)"/>
        <path id="Path_69893" data-name="Path 69893" class="cls-19" d="M1916.293,497.879a6.756,6.756,0,0,0-1.945,2.461c-.381,1.213-.553,3.71-1.281,3.625,0,0-1.577-3.8.2-5.947,1.88-2.278,3.03-.139,3.03-.139" transform="translate(-1586.176 -412.189)"/>
        <path id="Path_69894" data-name="Path 69894" class="cls-24" d="M1717.678,605.666a4.773,4.773,0,0,0-5.349-3.336c-.49.154-1.923.725-1.007,2.258.675,1.13.967.547,2.029,2.066a3.383,3.383,0,0,0,3.53,1.68Z" transform="translate(-1419.135 -499.533)"/>
        <path id="Path_69895" data-name="Path 69895" class="cls-24" d="M1967.707,1208.013a8.48,8.48,0,0,0,.4,3.608s.512,2.334-1.786,2.378-2.863-.174-2.6-1.6.755-3.906.755-3.906Z" transform="translate(-1628.672 -1001.935)"/>
        <path id="Path_69896" data-name="Path 69896" class="cls-28" d="M1962.72,1232.247s.049.03.144.077h4.5a1.109,1.109,0,0,0,.127-.077,11.288,11.288,0,0,0-.165-3.375c-2.6,2.385-4.233-.059-4.233-.059a12.212,12.212,0,0,0-.374,3.434" transform="translate(-1627.892 -1019.187)"/>
        <path id="Path_69897" data-name="Path 69897" class="cls-24" d="M1763.786,1200.554s4.238-4.7,5.539-7.1l3.151,1.615-7.044,6.615-1.648-.217Z" transform="translate(-1462.895 -989.862)"/>
        <path id="Path_69898" data-name="Path 69898" class="cls-28" d="M1748.383,1210.847h5.8a8.234,8.234,0,0,0,1.728-2.68,2.842,2.842,0,0,1,1.919-1.282v3.918h1.2l1.14-4.165c.75-1.379.059-2.63-.469-3.719-.614,0-2.266.419-5.4,3.947a4.1,4.1,0,0,1-3.294,1.536.328.328,0,0,1-.046.025,4.2,4.2,0,0,0-2.583,2.42" transform="translate(-1450.122 -997.71)"/>
        <path id="Path_69899" data-name="Path 69899" class="cls-28" d="M1881.258,589.185s-4.424,10.93-4.554,13.142-.521,36.172-.521,36.172.26,1.562-2.732.911-3.773-1.3-3.773-1.3,2.863-20.949,2.082-28.235,5.986-19.171,5.986-19.171Z" transform="translate(-1550.723 -488.675)"/>
        <path id="Path_69900" data-name="Path 69900" class="cls-15" d="M1819.744,923.216l3.314.1a65.42,65.42,0,0,0,11.948-22.185q.15-.477.318-.964c2.35-6.852,7.221-15.453,9.788-23.238.409-1.24.776-2.407,1.1-3.512.105-.354.208-.7.306-1.044l-2.73-2.071s-8.2,13.272-10.733,25.762c-2.2,10.849-11.031,23.9-13.316,27.15" transform="translate(-1509.309 -721.837)"/>
        <path id="Path_69901" data-name="Path 69901" class="cls-26" d="M1950.192,880.1c-.047,6.074.26,20.038,1.051,25.819h2.936c1.622,0,2.431-.023,2.431-.023,1.984-10.052,3.4-18.369,4.424-25.535.843-5.881,1.593-10.923,2.169-15.264.58-4.368.983-8.026,1.128-11.116.022-.487.039-.96.048-1.42s.012-.911.008-1.347l-16.017-1.561c.2,10.642,1.847,26.917,1.821,30.447" transform="translate(-1615.992 -704.712)"/>
        <path id="Path_69902" data-name="Path 69902" class="cls-15" d="M1982.418,926.964c1.622,0,2.431-.023,2.431-.023,1.984-10.052,3.4-18.369,4.424-25.535.843-5.881,1.593-10.923,2.169-15.264.58-4.368.984-8.026,1.128-11.116l-5.877,3.457s3.751,1.323,2.32,11.342-4.6,35.721-6.6,37.139" transform="translate(-1644.232 -725.753)"/>
        <path id="Path_69903" data-name="Path 69903" class="cls-28" d="M1951.373,638.932s1.128,4.076,5.031,3.556a47.043,47.043,0,0,0,9.454-2.863s-1.668-5.271-3.742-12.2c-2.511-8.383-5.62-19.191-7.085-26.008a42.061,42.061,0,0,1-.8-4.648L1951,590.491s-4.829,10.837-5.089,13.57,5.465,34.871,5.465,34.871" transform="translate(-1613.943 -489.758)"/>
        <path id="Path_69904" data-name="Path 69904" class="cls-29" d="M1978.982,662.932c.174,4.424,1.215,13.012,10.5,17.609.025.012.05.025.074.035-2.511-8.383-5.62-19.191-7.085-26.007-1.7,2.547-3.581,5.928-3.486,8.364" transform="translate(-1641.379 -542.904)"/>
        <rect id="Rectangle_35865" data-name="Rectangle 35865" class="cls-26" width="4.14" height="16.462" transform="translate(282.481 86.891) rotate(-45)"/>
        <path id="Path_69905" data-name="Path 69905" class="cls-30" d="M1775.464,610.757l-1.021,1.021a5.144,5.144,0,0,1-7.275,0L1710.2,554.815a5.144,5.144,0,0,1,0-7.275l1.021-1.021a5.145,5.145,0,0,1,7.275,0l56.963,56.963a5.145,5.145,0,0,1,0,7.275" transform="translate(-1417.206 -452.037)"/>
        <path id="Path_69906" data-name="Path 69906" class="cls-31" d="M1191.041,27.356a48.684,48.684,0,1,0,68.849,0,48.684,48.684,0,0,0-68.849,0M1256.1,92.413a43.321,43.321,0,1,1,0-61.265,43.321,43.321,0,0,1,0,61.265" transform="translate(-976.031 -10.863)"/>
        <path id="Path_69907" data-name="Path 69907" class="cls-24" d="M1927.478,603.654l-4.274-13.163a65.969,65.969,0,0,1,8.108,2.972s1.694,2.184,2.742,7.221c0,0,1.107,12.094-1.365,16.519,0,0-7.807,1.561-20.3-2.732v-2.863s13.662.716,16.46,1.041Z" transform="translate(-1586.15 -489.758)"/>
        <path id="Path_69908" data-name="Path 69908" class="cls-28" d="M1973.551,590.491s7.924.558,9.832,4.809,2.515,18.389.087,22.553c0,0-3.344.952-9.258-.154l-.219-.041s-1.886-4.619-.2-5.53c0,0,4.988.26,4.468-1.388s-4.714-20.249-4.714-20.249" transform="translate(-1636.498 -489.758)"/>
        <path id="Path_69909" data-name="Path 69909" class="cls-24" d="M1887.379,692.348a6.833,6.833,0,0,1-1.321-2.666,2.9,2.9,0,0,0-2.831-2.592c-1.879-.247-2.686-.274-2.681.256a14.02,14.02,0,0,0,4.231,6.434c2.7,2.208,2.6-1.432,2.6-1.432" transform="translate(-1559.738 -569.737)"/>
        <g id="Group_49553" data-name="Group 49553" class="cls-10" transform="translate(210.6 11.765)">
          <g id="Group_49552" data-name="Group 49552">
            <g id="Group_49551" data-name="Group 49551" class="cls-32">
              <path id="Path_69910" data-name="Path 69910" class="cls-14" d="M1292.537,68.97l-58.018,58.018a43.254,43.254,0,0,0,3.239,5.5l60.276-60.275a43.285,43.285,0,0,0-5.5-3.239" transform="translate(-1234.519 -68.97)"/>
            </g>
          </g>
        </g>
        <g id="Group_49556" data-name="Group 49556" class="cls-10" transform="translate(206.143 7.308)">
          <g id="Group_49555" data-name="Group 49555">
            <g id="Group_49554" data-name="Group 49554" class="cls-33">
              <path id="Path_69911" data-name="Path 69911" class="cls-14" d="M1266.886,45.576a43.343,43.343,0,0,0-55.762,55.761Z" transform="translate(-1208.389 -42.841)"/>
            </g>
          </g>
        </g>
        <g id="Group_49559" data-name="Group 49559" class="cls-10" transform="translate(230.275 31.44)">
          <g id="Group_49558" data-name="Group 49558">
            <g id="Group_49557" data-name="Group 49557" class="cls-34">
              <path id="Path_69912" data-name="Path 69912" class="cls-14" d="M1349.847,242.335a43.333,43.333,0,0,0,58.036-58.036Z" transform="translate(-1349.847 -184.299)"/>
            </g>
          </g>
        </g>
        <path id="Path_69913" data-name="Path 69913" class="cls-35" d="M44.392,1250.176H484.079a.392.392,0,1,0,0-.785H44.392a.392.392,0,1,0,0,.785" transform="translate(-36.494 -1036.254)"/>
      </g>
    </g>
  </g>
</svg>
